<svg xmlns="http://www.w3.org/2000/svg" xmlns:xlink="http://www.w3.org/1999/xlink" width="168" height="159"
     viewBox="0 0 168 159">
    <defs>
        <path id="w8gea"
              d="M915 1153.89v2.94a25.01 25.01 0 0 1-25.04 25.02h-10.32a5.9 5.9 0 0 1-5.89-5.89v-41.2a5.9 5.9 0 0 1 5.9-5.9h5.89a52.98 52.98 0 0 0-53.04-52.97 52.98 52.98 0 0 0-53.04 52.98h5.9a5.9 5.9 0 0 1 5.89 5.88v41.21a5.9 5.9 0 0 1-5.9 5.89h-2.06l8.55 13.4a33.62 33.62 0 0 0 28.73 16.03h2.06c1.33-5 5.9-8.83 11.34-8.83 6.49 0 11.79 5.3 11.79 11.78 0 6.47-5.3 11.77-11.79 11.77a11.84 11.84 0 0 1-11.34-8.83h-2.06a39.41 39.41 0 0 1-33.74-18.7l-10.46-16.62h-1.33a25.01 25.01 0 0 1-25.04-25.02v-2.94a25 25 0 0 1 23.57-24.87v-.15A58.88 58.88 0 0 1 832.5 1070a58.91 58.91 0 0 1 58.93 59.02 25 25 0 0 1 23.57 24.87zm-86.92 60.34a5.9 5.9 0 0 0 5.9 5.88 5.9 5.9 0 0 0 5.89-5.88 5.9 5.9 0 0 0-5.9-5.89 5.9 5.9 0 0 0-5.89 5.89zm-53.04-79.48a19.1 19.1 0 0 0-19.15 19.14v2.94a19.1 19.1 0 0 0 19.15 19.13h10.32v-41.2zm134.07 19.14a19.1 19.1 0 0 0-19.15-19.14h-10.32v41.21h10.32a19.1 19.1 0 0 0 19.15-19.13zm-50.98-57.7a2.73 2.73 0 0 1-2.5 1.48c-.44 0-1.03-.15-1.47-.44a5.97 5.97 0 0 1-1.33-.74c-.44-.3-.88-.59-1.18-.74-1.47-.88-1.77-2.5-1.03-3.97a2.77 2.77 0 0 1 3.98-1.03c.3.15.73.44 1.18.74.44.3.88.59 1.18.73a2.97 2.97 0 0 1 1.17 3.98zm-16.35-10.44c1.47.44 2.65 2.06 2.21 3.53a3.13 3.13 0 0 1-3.53 2.2c-2.66-.58-5.3-.88-7.96-.88a37.18 37.18 0 0 0-28 12.8 2.65 2.65 0 0 1-2.2 1.04 3.1 3.1 0 0 1-1.92-.74 2.98 2.98 0 0 1-.3-4.12 42.69 42.69 0 0 1 41.7-13.83z"/>
    </defs>
    <g>
        <g transform="translate(-748 -1068)">
            <use fill="#313131" xlink:href="#w8gea"/>
        </g>
    </g>
</svg>