<svg xmlns="http://www.w3.org/2000/svg" xmlns:xlink="http://www.w3.org/1999/xlink" width="84" height="131"
     viewBox="0 0 84 131">
    <defs>
        <path id="eumra"
              d="M1002 1084.05v108.9c0 6.1-4.94 11.05-11.01 11.05H929a11.04 11.04 0 0 1-11.01-11.05v-108.9c0-6.1 4.94-11.05 11.01-11.05H991c6.07 0 11.01 4.96 11.01 11.05zm-79.58 0v9.06h75.16v-9.06a6.61 6.61 0 0 0-6.6-6.61h-61.97a6.61 6.61 0 0 0-6.59 6.6zm0 13.5v81.9h75.16v-81.9zm75.16 95.4v-9.06h-75.16v9.06a6.61 6.61 0 0 0 6.6 6.61h61.97c3.63 0 6.59-2.96 6.59-6.6zm-54.38-54.45c0-9.3 7.54-16.86 16.8-16.86 9.26 0 16.8 7.56 16.8 16.86s-7.54 16.86-16.8 16.86c-9.26 0-16.8-7.57-16.8-16.86zm4.42 0c0 6.85 5.55 12.42 12.38 12.42a12.42 12.42 0 0 0 0-24.84 12.42 12.42 0 0 0-12.38 12.42zm4.63 0a7.77 7.77 0 0 1 7.75-7.78 7.77 7.77 0 0 1 0 15.55 7.77 7.77 0 0 1-7.75-7.77zm4.42 0c0 1.84 1.5 3.34 3.33 3.34a3.34 3.34 0 0 0 0-6.68 3.34 3.34 0 0 0-3.33 3.34zm-27.17 0c0-2.3.25-4.59.75-6.8.23-1 1.13-1.72 2.16-1.72h2.77c.36-1.05.78-2.07 1.26-3.06l-1.95-1.97a2.22 2.22 0 0 1-.31-2.75 30.77 30.77 0 0 1 9.58-9.61 2.2 2.2 0 0 1 2.74.3l1.96 1.97a26 26 0 0 1 3.04-1.26v-2.78c0-1.04.72-1.94 1.72-2.17 4.41-1 9.15-1 13.56 0 1 .23 1.72 1.13 1.72 2.17v2.78c1.03.35 2.05.78 3.04 1.27l1.96-1.97a2.2 2.2 0 0 1 2.75-.31 30.84 30.84 0 0 1 9.57 9.61c.55.88.43 2.02-.3 2.75l-1.96 1.97c.48 1 .9 2.01 1.26 3.06h2.77c1.03 0 1.93.71 2.16 1.72a30.74 30.74 0 0 1 0 13.6 2.21 2.21 0 0 1-2.16 1.72h-2.77a26.25 26.25 0 0 1-1.26 3.06l1.96 1.96c.73.74.85 1.88.3 2.75a30.84 30.84 0 0 1-9.57 9.62 2.2 2.2 0 0 1-2.75-.31l-1.96-1.97c-.99.5-2 .91-3.04 1.27v2.78c0 1.04-.72 1.94-1.72 2.17a30.44 30.44 0 0 1-13.56 0 2.22 2.22 0 0 1-1.72-2.17v-2.78a26.1 26.1 0 0 1-3.04-1.27l-1.96 1.97a2.2 2.2 0 0 1-2.74.3 30.77 30.77 0 0 1-9.58-9.6 2.22 2.22 0 0 1 .3-2.75l1.96-1.97c-.48-1-.9-2.01-1.26-3.06h-2.77a2.21 2.21 0 0 1-2.16-1.72c-.5-2.21-.75-4.5-.75-6.8zm4.42 0c0 1.37.1 2.74.31 4.09h2.58c1 0 1.88.67 2.14 1.64.48 1.8 1.2 3.53 2.13 5.15.5.87.35 1.97-.35 2.68l-1.83 1.83a26.4 26.4 0 0 0 5.76 5.78l1.83-1.83c.7-.71 1.8-.86 2.66-.36 1.62.94 3.35 1.66 5.14 2.14a2.22 2.22 0 0 1 1.64 2.14v2.6c2.67.41 5.46.41 8.14 0v-2.6c0-1 .67-1.88 1.64-2.14 1.79-.48 3.52-1.2 5.14-2.14a2.2 2.2 0 0 1 2.66.36l1.83 1.83a26.46 26.46 0 0 0 5.76-5.78l-1.83-1.83c-.7-.71-.85-1.8-.35-2.68a21.8 21.8 0 0 0 2.13-5.15 2.21 2.21 0 0 1 2.14-1.64h2.58a26.45 26.45 0 0 0 0-8.18h-2.58c-1 0-1.88-.67-2.14-1.64-.48-1.8-1.2-3.53-2.13-5.15-.5-.87-.35-1.97.35-2.68l1.83-1.83a26.46 26.46 0 0 0-5.76-5.78l-1.83 1.83c-.7.71-1.8.86-2.66.36a21.62 21.62 0 0 0-5.14-2.14 2.22 2.22 0 0 1-1.64-2.14v-2.6a26.39 26.39 0 0 0-8.14 0v2.6c0 1-.67 1.88-1.64 2.14-1.79.48-3.52 1.2-5.14 2.14a2.2 2.2 0 0 1-2.66-.36l-1.83-1.83a26.4 26.4 0 0 0-5.76 5.78l1.83 1.83c.7.71.85 1.8.35 2.68a21.8 21.8 0 0 0-2.13 5.15 2.21 2.21 0 0 1-2.14 1.64h-2.58a26.48 26.48 0 0 0-.31 4.09zm14.44-53.23c0-1.22.99-2.22 2.2-2.22h18.87a2.21 2.21 0 0 1 0 4.44h-18.86c-1.22 0-2.21-1-2.21-2.22zm18.27 106.34a6.65 6.65 0 0 1-6.63 6.65 6.65 6.65 0 0 1 0-13.3 6.65 6.65 0 0 1 6.63 6.65zm-4.42 0c0-1.22-1-2.22-2.21-2.22a2.22 2.22 0 0 0 0 4.44c1.22 0 2.21-1 2.21-2.22z"/>
    </defs>
    <g>
        <g transform="translate(-918 -1073)">
            <use fill="#313131" xlink:href="#eumra"/>
        </g>
    </g>
</svg>