<svg xmlns="http://www.w3.org/2000/svg" xmlns:xlink="http://www.w3.org/1999/xlink" width="54" height="53"
     viewBox="0 0 54 53">
    <defs>
        <path id="s8x5a"
              d="M1210.9 1610.17c0 .46-.38.83-.85.83h-10.2a.84.84 0 0 1-.85-.83 5.9 5.9 0 0 1 5.95-5.84 5.9 5.9 0 0 1 5.95 5.84zm-1.79-.84a4.22 4.22 0 0 0-3.31-3.24v1.58h-1.7v-1.58a4.21 4.21 0 0 0-3.31 3.24zm40.89-11.66v5c0 .46-.38.83-.85.83h-1.5l-.14.35 1.06 1.03c.33.33.33.85 0 1.18l-3.61 3.53a.86.86 0 0 1-1.2 0l-1.06-1.03-.35.14v1.47c0 .46-.38.83-.85.83h-5.1a.84.84 0 0 1-.85-.83v-1.47l-.35-.14-1.06 1.03a.86.86 0 0 1-1.2 0l-3.6-3.53a.82.82 0 0 1 0-1.18l1.05-1.03-.15-.35h-1.49a.84.84 0 0 1-.85-.83h-18.28a2.95 2.95 0 0 1-2.97-2.92c0-1.6 1.33-2.92 2.97-2.92h1.51l3.21-5.83h-11.09a4.21 4.21 0 0 1-4.25-4.17v-21.66c0-2.3 1.9-4.17 4.25-4.17h39.1a4.21 4.21 0 0 1 4.25 4.17v21.66c0 1.6-.93 2.97-2.28 3.67.23 0 .46.07.64.24l3.6 3.53c.34.33.34.86 0 1.18l-1.05 1.04.15.34h1.49c.47 0 .85.38.85.84zm-49.3-15h44.2v-17.5c0-1.38-1.14-2.5-2.55-2.5h-39.1a2.53 2.53 0 0 0-2.55 2.5zm41.65 6.66c1.4 0 2.55-1.12 2.55-2.5v-2.5h-44.2v2.5c0 1.38 1.14 2.5 2.55 2.5zm0 1.67v.63l.35.14 1.05-1.02c-.44.15-.9.25-1.4.25zm-7.94 0l.79.77.35-.14v-.63zm-2.97 0l.5.72.73-.72zm-3.54 7.5h-18.28c-.7 0-1.27.56-1.27 1.25s.57 1.25 1.27 1.25h18.28zm2.34-1.67l.15-.34-1.06-1.04a.82.82 0 0 1 0-1.18l1.39-1.35-1.34-1.92h-13.1l-3.22 5.83zm18.06 1.67h-1.24a.85.85 0 0 1-.81-.58c-.13-.4-.3-.82-.52-1.22a.82.82 0 0 1 .15-.97l.88-.87-2.4-2.35-.88.86a.86.86 0 0 1-1 .15 7.76 7.76 0 0 0-1.24-.51.84.84 0 0 1-.59-.8V1591h-3.4v1.22c0 .36-.24.68-.6.8-.4.12-.82.29-1.24.5a.86.86 0 0 1-.99-.15l-.88-.86-2.4 2.35.88.87c.26.25.32.65.15.97-.22.4-.39.81-.52 1.22a.85.85 0 0 1-.81.58h-1.24v3.33h1.24c.37 0 .7.24.81.59.13.4.3.8.52 1.21.17.33.11.72-.15.98l-.88.86 2.4 2.36.88-.87a.86.86 0 0 1 1-.15c.4.21.83.39 1.24.51.35.11.59.43.59.8v1.21h3.4v-1.21c0-.37.24-.69.6-.8.4-.13.82-.3 1.24-.5a.86.86 0 0 1 .99.14l.88.87 2.4-2.36-.88-.86a.82.82 0 0 1-.15-.98c.22-.4.39-.81.52-1.21a.85.85 0 0 1 .81-.59h1.24zm-4.25 1.67c0 2.75-2.29 5-5.1 5a5.06 5.06 0 0 1-5.1-5c0-2.76 2.29-5 5.1-5 2.81 0 5.1 2.24 5.1 5zm-1.7 0a3.37 3.37 0 0 0-3.4-3.34c-1.88 0-3.4 1.5-3.4 3.34a3.37 3.37 0 0 0 3.4 3.33c1.87 0 3.4-1.5 3.4-3.33zm-31.95-27.5l5.35 5.24-1.2 1.18-5.95-5.83a.82.82 0 0 1 0-1.18l5.95-5.84 1.2 1.18zm24.05.59l-5.95 5.83-1.2-1.18 5.35-5.24-5.35-5.25 1.2-1.18 5.95 5.84c.33.32.33.85 0 1.18zm-17.51 5.7l7.65-15 1.52.75-7.65 15zm15.21-1.3h1.7v1.67h-1.7zm3.4 0h1.7v1.67h-1.7zm3.4 0h1.7v1.67h-1.7z"/>
    </defs>
    <g>
        <g transform="translate(-1197 -1559)">
            <use fill="#b83333" xlink:href="#s8x5a"/>
        </g>
    </g>
</svg>