<svg xmlns="http://www.w3.org/2000/svg" xmlns:xlink="http://www.w3.org/1999/xlink" width="52" height="52"
     viewBox="0 0 52 52">
    <defs>
        <path id="2n8sa"
              d="M1073 5637a26 26 0 1 1-52 0 26 26 0 0 1 52 0zm-13.1-.1c.96-1.35 2-2.64 2.96-3.98.9-1.25 1.83-2.5 2.3-4 .31-.95.04-1.37-.93-1.53a3.03 3.03 0 0 0-.52-.03l-5.8-.01c-.7-.01-1.1.3-1.35.93-.34.86-.7 1.71-1.1 2.54a20.8 20.8 0 0 1-3.4 5.2c-.31.34-.66.77-1.2.6-.66-.25-.85-1.34-.84-1.71v-6.7c-.14-.95-.35-1.37-1.3-1.56h-6.02c-.8 0-1.2.31-1.63.82-.25.29-.32.47.19.57 1 .19 1.56.84 1.7 1.84.25 1.6.23 3.2.1 4.81-.05.47-.13.94-.32 1.38-.29.69-.76.83-1.37.4a5.6 5.6 0 0 1-1.34-1.46 32.36 32.36 0 0 1-3.53-6.55c-.28-.67-.74-1.08-1.45-1.09-1.74-.03-3.48-.03-5.22 0-1.04.02-1.36.53-.93 1.48 1.9 4.21 4 8.3 6.75 12.04a16.82 16.82 0 0 0 5.13 4.8 13.63 13.63 0 0 0 7.62 1.64c1.26-.06 1.64-.4 1.7-1.65.04-.86.14-1.71.56-2.48.42-.76 1.05-.9 1.77-.43.37.23.67.53.96.85.71.77 1.4 1.58 2.13 2.32.93.95 2.02 1.5 3.4 1.39h5.32c.86-.06 1.3-1.11.81-2.07-.34-.67-.8-1.27-1.28-1.85-1.09-1.3-2.37-2.42-3.58-3.6-1.1-1.07-1.16-1.68-.28-2.91z"/>
    </defs>
    <g>
        <g transform="translate(-1021 -5611)">
            <use fill="#bd4848" xlink:href="#2n8sa"/>
        </g>
    </g>
</svg>