<svg xmlns="http://www.w3.org/2000/svg" xmlns:xlink="http://www.w3.org/1999/xlink" width="167" height="168"
     viewBox="0 0 167 168">
    <defs>
        <path id="gk5ya"
              d="M533.5 1232.25a2.75 2.75 0 0 1-2.75 2.75h-33a2.75 2.75 0 0 1-2.75-2.75 19.27 19.27 0 0 1 19.25-19.25 19.27 19.27 0 0 1 19.25 19.25zm-5.78-2.75a13.77 13.77 0 0 0-10.72-10.7v5.2h-5.5v-5.2a13.77 13.77 0 0 0-10.72 10.7zM660 1191v16.5a2.75 2.75 0 0 1-2.75 2.75h-4.82l-.48 1.14 3.41 3.42a2.75 2.75 0 0 1 0 3.89l-11.66 11.66a2.75 2.75 0 0 1-3.9 0l-3.4-3.41-1.15.48v4.82a2.75 2.75 0 0 1-2.75 2.75H616a2.75 2.75 0 0 1-2.75-2.75v-4.82l-1.14-.48-3.42 3.41a2.75 2.75 0 0 1-3.89 0l-11.66-11.66a2.75 2.75 0 0 1 0-3.9l3.41-3.4-.48-1.15h-4.82a2.75 2.75 0 0 1-2.75-2.75h-59.13a9.64 9.64 0 0 1 0-19.25h4.88l10.39-19.25h-35.89a13.77 13.77 0 0 1-13.75-13.75v-71.5c0-7.58 6.17-13.75 13.75-13.75h126.5c7.58 0 13.75 6.17 13.75 13.75v71.5c0 5.27-3.01 9.8-7.37 12.1a2.7 2.7 0 0 1 2.07.79l11.66 11.66a2.75 2.75 0 0 1 0 3.9l-3.41 3.4.48 1.15h4.82A2.75 2.75 0 0 1 660 1191zm-159.5-49.5h143v-57.75c0-4.55-3.7-8.25-8.25-8.25h-126.5a8.26 8.26 0 0 0-8.25 8.25zm134.75 22c4.55 0 8.25-3.7 8.25-8.25V1147h-143v8.25c0 4.55 3.7 8.25 8.25 8.25zm0 5.5v2.07l1.14.48 3.38-3.38c-1.42.5-2.93.83-4.52.83zm-25.7 0l2.56 2.55 1.14-.48V1169zm-9.6 0l1.62 2.37 2.37-2.37zm-11.45 24.75h-59.13a4.13 4.13 0 0 0 0 8.25h59.13zm7.57-5.5c.15-.39.31-.76.48-1.15l-3.41-3.41a2.75 2.75 0 0 1 0-3.89l4.47-4.47-4.3-6.33h-42.42l-10.4 19.25zm58.43 5.5h-4.01c-1.2 0-2.26-.78-2.63-1.93a24.74 24.74 0 0 0-1.68-4 2.75 2.75 0 0 1 .5-3.22l2.85-2.85-7.78-7.78-2.85 2.85a2.75 2.75 0 0 1-3.22.5 24.75 24.75 0 0 0-4-1.68 2.75 2.75 0 0 1-1.93-2.63V1169h-11v4.01c0 1.2-.78 2.26-1.93 2.63-1.32.42-2.68.98-4 1.68a2.75 2.75 0 0 1-3.22-.5l-2.85-2.85-7.78 7.78 2.85 2.85c.85.85 1.05 2.15.5 3.22a24.73 24.73 0 0 0-1.68 4 2.75 2.75 0 0 1-2.63 1.93H594v11h4.01c1.2 0 2.26.78 2.63 1.92.42 1.33.98 2.69 1.68 4.02a2.75 2.75 0 0 1-.5 3.21l-2.85 2.85 7.78 7.78 2.85-2.85a2.76 2.76 0 0 1 3.22-.5c1.33.7 2.68 1.27 4 1.68a2.75 2.75 0 0 1 1.93 2.63v4.01h11v-4.01c0-1.2.78-2.26 1.92-2.63 1.33-.42 2.69-.98 4.02-1.68a2.76 2.76 0 0 1 3.21.5l2.85 2.85 7.78-7.78-2.85-2.85a2.75 2.75 0 0 1-.5-3.22c.7-1.33 1.27-2.68 1.68-4a2.75 2.75 0 0 1 2.63-1.93h4.01zm-13.75 5.5c0 9.1-7.4 16.5-16.5 16.5s-16.5-7.4-16.5-16.5 7.4-16.5 16.5-16.5 16.5 7.4 16.5 16.5zm-5.5 0a11.01 11.01 0 0 0-22 0 11.01 11.01 0 0 0 22 0zm-103.36-90.75l17.3 17.3-3.88 3.9-19.25-19.26a2.75 2.75 0 0 1 0-3.88l19.25-19.25 3.88 3.88zm77.8 1.94l-19.25 19.25-3.88-3.88 17.3-17.31-17.3-17.3 3.88-3.9 19.25 19.26a2.75 2.75 0 0 1 0 3.88zm-56.65 18.83l24.74-49.48 4.92 2.45-24.74 49.5zm49.21-4.27h5.5v5.5h-5.5zm11 0h5.5v5.5h-5.5zm11 0h5.5v5.5h-5.5z"/>
    </defs>
    <g>
        <g transform="translate(-494 -1068)">
            <use fill="#313131" xlink:href="#gk5ya"/>
        </g>
    </g>
</svg>