<svg xmlns="http://www.w3.org/2000/svg" xmlns:xlink="http://www.w3.org/1999/xlink" width="36" height="55"
     viewBox="0 0 36 55">
    <defs>
        <path id="911fa"
              d="M1330 2811.47v44.06c0 2.46-2 4.47-4.46 4.47h-25.08c-2.46 0-4.46-2-4.46-4.47v-44.06c0-2.46 2-4.47 4.46-4.47h25.08c2.46 0 4.46 2 4.46 4.47zm-32.21 0v3.67h30.42v-3.67c0-1.48-1.2-2.68-2.67-2.68h-25.08a2.67 2.67 0 0 0-2.67 2.68zm0 5.46v33.14h30.42v-33.14zm30.42 38.6v-3.67h-30.42v3.67c0 1.48 1.2 2.68 2.67 2.68h25.08c1.47 0 2.67-1.2 2.67-2.68zm-22.01-22.03a6.82 6.82 0 0 1 6.8-6.82 6.82 6.82 0 0 1 0 13.64 6.82 6.82 0 0 1-6.8-6.82zm1.79 0a5.02 5.02 0 0 0 5.01 5.03 5.02 5.02 0 0 0 0-10.06 5.02 5.02 0 0 0-5.01 5.03zm1.87 0a3.14 3.14 0 1 1 3.14 3.15 3.14 3.14 0 0 1-3.14-3.15zm1.8 0a1.35 1.35 0 1 0 2.7 0 1.35 1.35 0 0 0-2.7 0zm-11 0c0-.93.1-1.86.3-2.75.1-.4.45-.7.87-.7h1.12c.15-.42.32-.83.52-1.24l-.8-.8a.9.9 0 0 1-.12-1.1c.98-1.56 2.32-2.9 3.88-3.9a.9.9 0 0 1 1.1.13l.8.8c.4-.2.81-.37 1.23-.52v-1.12a.9.9 0 0 1 .7-.88c1.78-.4 3.7-.4 5.48 0 .41.1.7.46.7.88v1.12c.42.15.83.32 1.23.52l.8-.8a.9.9 0 0 1 1.1-.12c1.56.98 2.9 2.33 3.88 3.89a.9.9 0 0 1-.12 1.1l-.8.8c.2.4.37.82.52 1.24h1.12a.9.9 0 0 1 .87.7 12.44 12.44 0 0 1 0 5.5.9.9 0 0 1-.87.7h-1.12c-.15.42-.32.83-.52 1.23l.8.8c.3.3.34.76.12 1.11a12.48 12.48 0 0 1-3.87 3.9.9.9 0 0 1-1.11-.13l-.8-.8c-.4.2-.81.37-1.23.51v1.13a.9.9 0 0 1-.7.87 12.32 12.32 0 0 1-5.48 0 .9.9 0 0 1-.7-.87v-1.13c-.42-.14-.83-.31-1.23-.5l-.8.79a.9.9 0 0 1-1.1.12 12.45 12.45 0 0 1-3.88-3.89.9.9 0 0 1 .12-1.11l.8-.8c-.2-.4-.37-.8-.52-1.23h-1.12a.9.9 0 0 1-.87-.7c-.2-.9-.3-1.82-.3-2.75zm1.78 0c0 .56.05 1.11.13 1.65h1.04c.4 0 .76.28.87.67.2.72.48 1.43.86 2.08.2.35.14.8-.14 1.08l-.74.74c.65.9 1.44 1.7 2.33 2.34l.74-.74a.9.9 0 0 1 1.08-.14c.65.38 1.35.67 2.08.87.39.1.66.46.66.86v1.05c1.09.17 2.21.17 3.3 0v-1.05c0-.4.27-.76.66-.86.73-.2 1.43-.5 2.08-.87a.9.9 0 0 1 1.08.14l.74.74a10.7 10.7 0 0 0 2.33-2.34l-.74-.74a.9.9 0 0 1-.14-1.08c.37-.65.67-1.36.86-2.08a.9.9 0 0 1 .86-.67h1.05a10.7 10.7 0 0 0 0-3.3h-1.05a.9.9 0 0 1-.86-.67 8.82 8.82 0 0 0-.86-2.08.9.9 0 0 1 .14-1.08l.74-.75c-.65-.89-1.44-1.68-2.33-2.33l-.74.74a.9.9 0 0 1-1.08.14 8.77 8.77 0 0 0-2.08-.87.9.9 0 0 1-.66-.86v-1.05a10.67 10.67 0 0 0-3.3 0v1.05a.9.9 0 0 1-.66.86c-.73.2-1.43.5-2.08.87a.9.9 0 0 1-1.08-.14l-.74-.74c-.89.65-1.68 1.44-2.33 2.33l.74.74a.9.9 0 0 1 .14 1.09 8.82 8.82 0 0 0-.86 2.08.9.9 0 0 1-.87.67h-1.04c-.08.54-.13 1.1-.13 1.65zm5.85-21.54c0-.5.4-.9.9-.9h7.63a.9.9 0 0 1 0 1.8h-7.64a.9.9 0 0 1-.9-.9zm7.4 43.03a2.7 2.7 0 0 1-2.69 2.69 2.7 2.7 0 0 1 0-5.38 2.7 2.7 0 0 1 2.68 2.69zm-1.8 0c0-.5-.4-.9-.89-.9a.9.9 0 0 0 0 1.8c.5 0 .9-.4.9-.9z"/>
    </defs>
    <g>
        <g transform="translate(-1295 -2806)">
            <use fill="#bb3b3b" xlink:href="#911fa"/>
        </g>
    </g>
</svg>