<svg xmlns="http://www.w3.org/2000/svg" xmlns:xlink="http://www.w3.org/1999/xlink" width="56" height="56"
     viewBox="0 0 56 56">
    <defs>
        <path id="9ri3a"
              d="M1211.75 2823.85a4.42 4.42 0 1 1 8.84.01 4.42 4.42 0 0 1-8.84-.01zm1.77 0a2.65 2.65 0 1 0 5.3 0 2.65 2.65 0 0 0-5.3 0zm-3.54 15.02c0 .48-.4.88-.88.88h-21.2a.88.88 0 1 1 0-1.77h21.2c.49 0 .88.4.88.89zm0 4.41c0 .5-.4.89-.88.89h-21.2a.88.88 0 1 1 0-1.77h21.2c.49 0 .88.4.88.88zm15.02-28.26v30.03h-5.3v2.65h-2.65v5.3h-37.1v-5.3h-2.65v-2.65h-5.3v-30.03h7.95V2800h37.1v15.02zm-43.28 0h33.56v-13.25h-33.56zm-7.95 1.76v14.14h49.46v-14.14zm6.18 29.15v-13.25h-6.18v10.6h3.53v-3.53a.88.88 0 1 1 1.77 0v6.18zm35.33-13.25h-33.56v18.55h33.56zm7.95 10.6v-10.6h-6.18v13.25h.88v-6.18a.88.88 0 1 1 1.77 0v3.53z"/>
    </defs>
    <g>
        <g transform="translate(-1170 -2798)">
            <use fill="#bf4848" xlink:href="#9ri3a"/>
        </g>
    </g>
</svg>