<svg xmlns="http://www.w3.org/2000/svg" xmlns:xlink="http://www.w3.org/1999/xlink" width="56" height="53"
     viewBox="0 0 56 53">
    <defs>
        <path id="7xeda"
              d="M1287 2435.89v.94c0 4.43-3.6 8.02-8.04 8.02h-3.32a1.9 1.9 0 0 1-1.89-1.89v-13.2a1.9 1.9 0 0 1 1.9-1.9h1.89a17 17 0 0 0-17.04-16.97 17 17 0 0 0-17.04 16.98h1.9c1.04 0 1.89.85 1.89 1.88v13.21a1.9 1.9 0 0 1-1.9 1.89h-.66l2.75 4.3a10.8 10.8 0 0 0 9.23 5.13h.66a3.8 3.8 0 0 1 3.64-2.83 3.8 3.8 0 0 1 3.79 3.78c0 2.07-1.7 3.77-3.79 3.77a3.8 3.8 0 0 1-3.64-2.83h-.66c-4.45 0-8.47-2.22-10.84-6l-3.36-5.32h-.43a8.02 8.02 0 0 1-8.04-8.02v-.94a8.02 8.02 0 0 1 7.57-7.98v-.04a18.9 18.9 0 0 1 18.93-18.87 18.9 18.9 0 0 1 18.93 18.91 8.02 8.02 0 0 1 7.57 7.98zm-27.92 19.34a1.9 1.9 0 0 0 3.79 0 1.9 1.9 0 0 0-3.79 0zm-17.04-25.48a6.13 6.13 0 0 0-6.15 6.14v.94c0 3.4 2.75 6.13 6.15 6.13h3.32v-13.2zm43.07 6.14c0-3.4-2.75-6.14-6.15-6.14h-3.32v13.21h3.32c3.4 0 6.15-2.73 6.15-6.13zm-16.38-18.5a.88.88 0 0 1-.8.48.92.92 0 0 1-.47-.14c-.15-.05-.29-.15-.43-.24-.14-.1-.28-.19-.38-.24-.47-.28-.57-.8-.33-1.27a.9.9 0 0 1 1.28-.33c.1.05.23.14.38.24.14.1.28.18.38.23.47.29.61.85.37 1.28zm-5.25-3.34c.47.14.85.66.71 1.13a1 1 0 0 1-1.13.7 11.8 11.8 0 0 0-11.55 3.83.85.85 0 0 1-.71.33 1 1 0 0 1-.62-.24.95.95 0 0 1-.1-1.32 13.72 13.72 0 0 1 13.4-4.43z"/>
    </defs>
    <g>
        <g transform="translate(-1232 -2407)">
            <use fill="#b83333" xlink:href="#7xeda"/>
        </g>
    </g>
</svg>