<svg xmlns="http://www.w3.org/2000/svg" xmlns:xlink="http://www.w3.org/1999/xlink" width="56" height="56"
     viewBox="0 0 56 56">
    <defs>
        <path id="hffga"
              d="M1319.65 3893.33a3.67 3.67 0 1 1-4.5-3.56v-12.71h-4.8a.85.85 0 0 1 0-1.7h5.64c.47 0 .85.39.85.85v13.56a3.67 3.67 0 0 1 2.81 3.56zm-1.69 0a1.98 1.98 0 1 0-3.95 0 1.98 1.98 0 0 0 3.95 0zm10.72 0a3.67 3.67 0 1 1-4.52-3.56v-12.71h-4.79a.85.85 0 0 1 0-1.7h5.64c.47 0 .85.39.85.85v13.56a3.67 3.67 0 0 1 2.82 3.56zm-1.7 0a1.98 1.98 0 1 0-3.95 0 1.98 1.98 0 0 0 3.95 0zm16.92-5.63a3.67 3.67 0 0 1-7.23.84h-2.64a.85.85 0 0 1-.84-.84v-10.64h-4.8a.85.85 0 0 1 0-1.7h5.64c.47 0 .85.39.85.85v10.64h1.79a3.67 3.67 0 0 1 7.23.85zm-1.7 0a1.98 1.98 0 1 0-3.94 0 1.98 1.98 0 0 0 3.95 0zm4.8-19.77c0 5.04-4.1 9.13-9.13 9.13h-.46a.85.85 0 0 1 0-1.7h.46a7.44 7.44 0 0 0 1.69-14.67.85.85 0 0 1-.66-.81 14.36 14.36 0 0 0-14.32-14.19 14.33 14.33 0 0 0-12.53 7.4.85.85 0 0 1-1.08.37 5.63 5.63 0 0 0-7.8 4.42.85.85 0 0 1-.67.72 8.48 8.48 0 0 0 1.66 16.77h2.8c.48 0 .85.38.85.84v11.49c0 .46-.37.84-.84.84h-2.64a3.67 3.67 0 1 1 0-1.69h1.8v-9.79h-1.97a10.17 10.17 0 0 1-2.56-19.99 7.33 7.33 0 0 1 9.33-5.43 16.03 16.03 0 0 1 29.65 7.58 9.18 9.18 0 0 1 6.42 8.71zm-44.26 19.77a1.98 1.98 0 1 0-3.95 0 1.98 1.98 0 0 0 3.95 0zm31.65-27.78a9.7 9.7 0 0 0-.66-3.45.85.85 0 1 1 1.57-.62c.5 1.3.77 2.66.78 4.05 0 .47-.37.85-.83.86h-.01a.85.85 0 0 1-.85-.84zm-9.8-9.72a.85.85 0 0 1 0-1.69c3.43 0 6.66 1.53 8.86 4.2a.85.85 0 0 1-1.3 1.07 9.79 9.79 0 0 0-7.56-3.58z"/>
    </defs>
    <g>
        <g transform="translate(-1292 -3842)">
            <use fill="#bf4848" xlink:href="#hffga"/>
        </g>
    </g>
</svg>