<svg xmlns="http://www.w3.org/2000/svg" xmlns:xlink="http://www.w3.org/1999/xlink" width="77" height="77"
     viewBox="0 0 77 77">
    <defs>
        <path id="is1xa"
              d="M75.32 2373.65v65.7a5.66 5.66 0 0 1-5.66 5.65H37.33a5.66 5.66 0 0 1-5.65-5.66v-65.69a5.66 5.66 0 0 1 5.65-5.65h32.34a5.66 5.66 0 0 1 5.65 5.65zm-41.07 53.38h38.5v-48.76h-38.5zm0-53.38v2.05h38.5v-2.05c0-1.7-1.38-3.08-3.09-3.08H37.33a3.09 3.09 0 0 0-3.08 3.08zm38.5 65.7v-9.75h-38.5v9.75c0 1.7 1.38 3.08 3.08 3.08h32.34c1.7 0 3.08-1.38 3.08-3.08zm-14.12-3.33a5.14 5.14 0 1 1-10.27-.02 5.14 5.14 0 0 1 10.27.02zm-2.56 0a2.57 2.57 0 1 0-5.14 0 2.57 2.57 0 0 0 5.14 0zm-8.99-62.89c0-.7.58-1.28 1.29-1.28h5.13a1.28 1.28 0 1 1 0 2.57h-5.13c-.71 0-1.29-.58-1.29-1.29zm8.99 0c0-.7.57-1.28 1.28-1.28h1.28a1.28 1.28 0 1 1 0 2.57h-1.28c-.71 0-1.28-.58-1.28-1.29zm31.59 21.75a1.28 1.28 0 1 1-1.82-1.81c4.8-4.8 4.8-12.6 0-17.4a1.28 1.28 0 1 1 1.82-1.8c5.8 5.79 5.8 15.22 0 21.01zm-2.2-10.33c0 2.94-1.13 5.7-3.2 7.77a1.28 1.28 0 0 1-1.82 0c-.5-.5-.5-1.31 0-1.82a8.36 8.36 0 0 0 2.46-5.95c0-2.25-.87-4.36-2.46-5.95a1.28 1.28 0 1 1 1.81-1.82 10.9 10.9 0 0 1 3.22 7.77zm-64.3 8.52a1.28 1.28 0 1 1-1.82 1.81 14.88 14.88 0 0 1 0-21.02 1.28 1.28 0 1 1 1.82 1.82 12.3 12.3 0 0 0 0 17.39zm5.4-14.83a8.35 8.35 0 0 0-2.46 5.96c0 2.25.87 4.36 2.46 5.95a1.28 1.28 0 1 1-1.81 1.81 10.91 10.91 0 0 1-3.22-7.76c0-2.94 1.14-5.7 3.22-7.77a1.28 1.28 0 1 1 1.81 1.81z"/>
    </defs>
    <g>
        <g transform="translate(-15 -2368)">
            <use fill="#bd4848" xlink:href="#is1xa"/>
        </g>
    </g>
</svg>