<svg xmlns="http://www.w3.org/2000/svg" xmlns:xlink="http://www.w3.org/1999/xlink" version="1.1" width="256" height="256" viewBox="0 0 256 256" xml:space="preserve">

<defs>
</defs>
<g style="stroke: none; stroke-width: 0; stroke-dasharray: none; stroke-linecap: butt; stroke-linejoin: miter; stroke-miterlimit: 10; fill: none; fill-rule: nonzero; opacity: 1;" transform="translate(1.4065934065934016 1.4065934065934016) scale(2.81 2.81)" >
	<path d="M 78.276 78.223 H 11.724 C 5.259 78.223 0 72.964 0 66.499 V 23.501 c 0 -6.464 5.259 -11.724 11.724 -11.724 h 66.553 C 84.741 11.778 90 17.037 90 23.501 v 42.998 C 90 72.964 84.741 78.223 78.276 78.223 z M 11.724 15.778 C 7.465 15.778 4 19.243 4 23.501 v 42.998 c 0 4.259 3.465 7.724 7.724 7.724 h 66.553 c 4.259 0 7.724 -3.465 7.724 -7.724 V 23.501 c 0 -4.259 -3.465 -7.724 -7.724 -7.724 H 11.724 z" style="stroke: none; stroke-width: 1; stroke-dasharray: none; stroke-linecap: butt; stroke-linejoin: miter; stroke-miterlimit: 10; fill: rgb(184,51,51); fill-rule: nonzero; opacity: 1;" transform=" matrix(1 0 0 1 0 0) " stroke-linecap="round" />
	<path d="M 45 52.01 c -3 0 -6.001 -1.121 -8.286 -3.364 L 15.259 27.581 c -0.788 -0.774 -0.8 -2.04 -0.026 -2.829 c 0.774 -0.788 2.041 -0.799 2.829 -0.026 l 21.455 21.065 c 3.024 2.97 7.944 2.969 10.967 0 l 21.455 -21.065 c 0.788 -0.774 2.054 -0.762 2.828 0.026 c 0.774 0.789 0.763 2.055 -0.025 2.829 L 53.286 48.646 C 51.002 50.889 48.001 52.01 45 52.01 z" style="stroke: none; stroke-width: 1; stroke-dasharray: none; stroke-linecap: butt; stroke-linejoin: miter; stroke-miterlimit: 10; fill: rgb(184,51,51); fill-rule: nonzero; opacity: 1;" transform=" matrix(1 0 0 1 0 0) " stroke-linecap="round" />
	<path d="M 73.396 64.225 c -0.503 0 -1.006 -0.188 -1.395 -0.566 L 61.597 53.533 c -0.792 -0.771 -0.81 -2.037 -0.039 -2.828 c 0.772 -0.793 2.037 -0.808 2.828 -0.039 L 74.79 60.791 c 0.792 0.771 0.81 2.037 0.039 2.828 C 74.437 64.022 73.916 64.225 73.396 64.225 z" style="stroke: none; stroke-width: 1; stroke-dasharray: none; stroke-linecap: butt; stroke-linejoin: miter; stroke-miterlimit: 10; fill: rgb(184,51,51); fill-rule: nonzero; opacity: 1;" transform=" matrix(1 0 0 1 0 0) " stroke-linecap="round" />
	<path d="M 16.604 64.225 c -0.521 0 -1.041 -0.202 -1.433 -0.605 c -0.771 -0.791 -0.753 -2.058 0.038 -2.828 l 10.404 -10.125 c 0.792 -0.77 2.058 -0.754 2.828 0.039 c 0.771 0.791 0.753 2.058 -0.038 2.828 L 18 63.658 C 17.611 64.036 17.107 64.225 16.604 64.225 z" style="stroke: none; stroke-width: 1; stroke-dasharray: none; stroke-linecap: butt; stroke-linejoin: miter; stroke-miterlimit: 10; fill: rgb(184,51,51); fill-rule: nonzero; opacity: 1;" transform=" matrix(1 0 0 1 0 0) " stroke-linecap="round" />
</g>
</svg>