<svg xmlns="http://www.w3.org/2000/svg" xmlns:xlink="http://www.w3.org/1999/xlink" width="77" height="47"
     viewBox="0 0 77 47">
    <defs>
        <path id="9v0la"
              d="M92 2148.94a3.96 3.96 0 0 1-3.94 3.96L19 2153a3.95 3.95 0 0 1-3.94-3.96l-.06-38.98a3.95 3.95 0 0 1 3.94-3.97L88 2106a3.96 3.96 0 0 1 3.95 3.97zm-68.72-38.89l30.22 20.98 30.17-21.06zm42.63 22.18a1.97 1.97 0 0 1 2.77-.35l19.38 15.1-.05-35.21-33.38 23.3a1.96 1.96 0 0 1-2.24 0l-33.44-23.21.05 35.12 19.38-15.1c.86-.67 2.1-.51 2.77.35.67.86.51 2.1-.35 2.78l-18 14.02 61.35-.08L66.26 2135a1.99 1.99 0 0 1-.35-2.78z"/>
    </defs>
    <g>
        <g transform="translate(-15 -2106)">
            <use fill="#bd4848" xlink:href="#9v0la"/>
        </g>
    </g>
</svg>