<svg xmlns="http://www.w3.org/2000/svg" xmlns:xlink="http://www.w3.org/1999/xlink" width="77" height="75"
     viewBox="0 0 77 75">
    <defs>
        <path id="widia"
              d="M92 2236.3v49.46a8.01 8.01 0 0 1-8.05 7.96H47.67a6.11 6.11 0 0 1-5.86 4.28H21.13a6.11 6.11 0 0 1-6.13-6.29l1.05-28.2c.07-1.87.06-5.01 0-6.88L15 2229.3a6.11 6.11 0 0 1 6.12-6.29H41.8a6.11 6.11 0 0 1 6.08 5.34h36.06a8.01 8.01 0 0 1 8.05 7.96zm-49.42 55.6l-1.05-28.2c-.07-2-.07-5.26 0-7.27l1.04-27.34a.74.74 0 0 0-.76-.78H21.13a.75.75 0 0 0-.56.22c-.1.1-.21.28-.2.56l1.03 27.34c.08 2 .08 5.27 0 7.27l-1.04 28.2c0 .28.11.46.21.57.1.1.28.22.56.22H41.8c.28 0 .46-.12.56-.22.1-.1.22-.29.2-.56zm44.06-6.14v-49.46c0-1.47-1.2-2.66-2.69-2.66H47.77l-.87 23c-.07 1.86-.07 5 0 6.87l.92 24.9h36.13a2.67 2.67 0 0 0 2.69-2.65zm-3.67-42.95c0 1.47-1.2 2.65-2.68 2.65H52.13a2.67 2.67 0 0 1-2.68-2.65c0-1.46 1.2-2.65 2.68-2.65h28.16a2.67 2.67 0 0 1 2.68 2.65zm-24.43 12.98c0 1.46-1.2 2.65-2.68 2.65h-3.02a2.67 2.67 0 0 1-2.68-2.65c0-1.47 1.2-2.65 2.68-2.65h3.02a2.67 2.67 0 0 1 2.68 2.65zm11.68 0c0 1.46-1.2 2.65-2.68 2.65h-3.02a2.67 2.67 0 0 1-2.68-2.65c0-1.47 1.2-2.65 2.68-2.65h3.02a2.67 2.67 0 0 1 2.68 2.65zm11.68 0c0 1.46-1.2 2.65-2.68 2.65H76.2a2.67 2.67 0 0 1-2.68-2.65c0-1.47 1.2-2.65 2.68-2.65h3.02a2.67 2.67 0 0 1 2.68 2.65zm-23.36 10.15c0 1.47-1.2 2.66-2.68 2.66h-3.02a2.67 2.67 0 0 1-2.68-2.66c0-1.46 1.2-2.65 2.68-2.65h3.02a2.67 2.67 0 0 1 2.68 2.65zm11.68 0c0 1.47-1.2 2.66-2.68 2.66h-3.02a2.67 2.67 0 0 1-2.68-2.66c0-1.46 1.2-2.65 2.68-2.65h3.02a2.67 2.67 0 0 1 2.68 2.65zm11.68 0c0 1.47-1.2 2.66-2.68 2.66H76.2a2.67 2.67 0 0 1-2.68-2.66c0-1.46 1.2-2.65 2.68-2.65h3.02a2.67 2.67 0 0 1 2.68 2.65zm-23.36 10.16c0 1.46-1.2 2.65-2.68 2.65h-3.02a2.67 2.67 0 0 1-2.68-2.65c0-1.47 1.2-2.66 2.68-2.66h3.02a2.67 2.67 0 0 1 2.68 2.66zm11.68 0c0 1.46-1.2 2.65-2.68 2.65h-3.02a2.67 2.67 0 0 1-2.68-2.65c0-1.47 1.2-2.66 2.68-2.66h3.02a2.67 2.67 0 0 1 2.68 2.66zm11.68 0c0 1.46-1.2 2.65-2.68 2.65H76.2a2.67 2.67 0 0 1-2.68-2.65c0-1.47 1.2-2.66 2.68-2.66h3.02a2.67 2.67 0 0 1 2.68 2.66z"/>
    </defs>
    <g>
        <g transform="translate(-15 -2223)">
            <use fill="#bd4848" xlink:href="#widia"/>
        </g>
    </g>
</svg>