<svg xmlns="http://www.w3.org/2000/svg" xmlns:xlink="http://www.w3.org/1999/xlink" width="77" height="103"
     viewBox="0 0 77 103">
    <defs>
        <path id="3gona"
              d="M91.28 2030.23a2.53 2.53 0 0 1-2.85.54l-16.95-7.57-16.95 7.57c-.66.3-1.4.3-2.06 0l-16.95-7.57-16.95 7.57c-.97.44-2.1.22-2.85-.54a2.55 2.55 0 0 1-.47-2.86l13.53-28.73c.26-.55.7-.98 1.26-1.23l6.77-3.03-11.67-19.61-.08-.15a32.22 32.22 0 0 1-3.49-14.78 31.9 31.9 0 0 1 9.29-22.34c5.94-6 13.82-9.38 22.19-9.5a31.65 31.65 0 0 1 22.87 9.22 31.87 31.87 0 0 1 9.51 22.82 31.78 31.78 0 0 1-3.57 14.73l-11.67 19.62 6.73 3c.56.24 1.03.68 1.3 1.25l13.53 28.73c.46.96.27 2.1-.47 2.86zm-39.95-21.35a2.49 2.49 0 0 0 2.17 1.24c.43 0 1.51-.12 2.18-1.24l21.78-36.64c1.93-3.8 2.9-7.9 2.9-12.2a26.8 26.8 0 0 0-8-19.2c-5.16-5.1-12-7.85-19.24-7.76-14.52.2-26.4 12.22-26.48 26.8-.03 4.35.95 8.5 2.9 12.36zm32.93 14.46l-10.22-21.67-6.46-2.89-7.56 12.7a7.53 7.53 0 0 1-6.52 3.72 7.53 7.53 0 0 1-6.53-3.72l-7.55-12.7-6.46 2.89-10.22 21.67 11.75-5.24c.65-.3 1.4-.3 2.06 0l16.95 7.57 16.95-7.57c.66-.3 1.4-.3 2.06 0zm-19.2-63.3c0 6.4-5.19 11.6-11.56 11.6a11.6 11.6 0 0 1 0-23.2 11.6 11.6 0 0 1 11.56 11.6zm-5.07 0c0-3.6-2.9-6.52-6.49-6.52a6.51 6.51 0 0 0 0 13.03c3.58 0 6.5-2.92 6.5-6.51z"/>
    </defs>
    <g>
        <g transform="translate(-15 -1928)">
            <use fill="#bd4848" xlink:href="#3gona"/>
        </g>
    </g>
</svg>